{
  "accessors": [
    {
      "bufferView": 2,
      "componentType": 5126,
      "count": 21920,
      "max": [
        4.47635555267334,
        1.3410061597824097,
        11.847135543823242
      ],
      "min": [
        -2.7437353134155273,
        -1.341007947921753,
        -0.2052745819091797
      ],
      "type": "VEC3"
    },
    {
      "bufferView": 2,
      "byteOffset": 263040,
      "componentType": 5126,
      "count": 21920,
      "max": [
        0.9999998807907104,
        0.9951845407485962,
        0.999972939491272
      ],
      "min": [
        -0.999878466129303,
        -0.9951844811439514,
        -0.999681293964386
      ],
      "type": "VEC3"
    },
    {
      "bufferView": 3,
      "componentType": 5126,
      "count": 21920,
      "max": [
        0.999782383441925,
        1.0,
        0.9999356269836426,
        1.0
      ],
      "min": [
        -0.999972939491272,
        -1.0,
        -0.9999998807907104,
        1.0
      ],
      "type": "VEC4"
    },
    {
      "bufferView": 1,
      "componentType": 5126,
      "count": 21920,
      "max": [
        0.9788787961006165,
        0.9887615442276001
      ],
      "min": [
        0.011238453909754753,
        0.011238456703722477
      ],
      "type": "VEC2"
    },
    {
      "bufferView": 0,
      "componentType": 5125,
      "count": 61440,
      "type": "SCALAR"
    },
    {
      "bufferView": 2,
      "byteOffset": 526080,
      "componentType": 5126,
      "count": 1386,
      "max": [
        4.481360912322998,
        3.5168066024780273,
        15.97269344329834
      ],
      "min": [
        -5.454531669616699,
        -3.5168066024780273,
        8.714168548583984
      ],
      "type": "VEC3"
    },
    {
      "bufferView": 2,
      "byteOffset": 542712,
      "componentType": 5126,
      "count": 1386,
      "max": [
        0.9962578415870667,
        0.9999004602432251,
        0.9986697435379028
      ],
      "min": [
        -0.999999463558197,
        -0.9999004602432251,
        -0.9999998807907104
      ],
      "type": "VEC3"
    },
    {
      "bufferView": 3,
      "byteOffset": 350720,
      "componentType": 5126,
      "count": 1386,
      "max": [
        0.9997863173484802,
        0.9999960064888,
        0.9962356090545654,
        1.0
      ],
      "min": [
        -0.9739909172058105,
        -0.9999989867210388,
        -0.9972859025001526,
        1.0
      ],
      "type": "VEC4"
    },
    {
      "bufferView": 1,
      "byteOffset": 175360,
      "componentType": 5126,
      "count": 1386,
      "max": [
        0.7856559753417969,
        0.761423647403717
      ],
      "min": [
        0.011238472536206245,
        0.011238470673561096
      ],
      "type": "VEC2"
    },
    {
      "bufferView": 0,
      "byteOffset": 245760,
      "componentType": 5125,
      "count": 6786,
      "type": "SCALAR"
    },
    {
      "bufferView": 2,
      "byteOffset": 559344,
      "componentType": 5126,
      "count": 384,
      "max": [
        4.093712329864502,
        1.4654619693756104,
        11.691761016845703
      ],
      "min": [
        0.4928237795829773,
        -1.4654619693756104,
        9.259588241577148
      ],
      "type": "VEC3"
    },
    {
      "bufferView": 2,
      "byteOffset": 563952,
      "componentType": 5126,
      "count": 384,
      "max": [
        0.9478548765182495,
        0.9964625835418701,
        0.9786346554756165
      ],
      "min": [
        -0.9478550553321838,
        -0.9964625835418701,
        -0.9779390692710876
      ],
      "type": "VEC3"
    },
    {
      "bufferView": 3,
      "byteOffset": 372896,
      "componentType": 5126,
      "count": 384,
      "max": [
        0.9533579349517822,
        0.9506620764732361,
        0.9959548711776733,
        1.0
      ],
      "min": [
        -0.9533581733703613,
        -0.9998018145561218,
        -0.9932780861854553,
        1.0
      ],
      "type": "VEC4"
    },
    {
      "bufferView": 1,
      "byteOffset": 186448,
      "componentType": 5126,
      "count": 384,
      "max": [
        0.7865207195281982,
        0.7221144437789917
      ],
      "min": [
        0.3287525177001953,
        0.1807689666748047
      ],
      "type": "VEC2"
    },
    {
      "bufferView": 0,
      "byteOffset": 272904,
      "componentType": 5125,
      "count": 576,
      "type": "SCALAR"
    }
  ],
  "asset": {
    "extras": {
      "author": "a-python-script (https://sketchfab.com/a-python-script)",
      "license": "SKETCHFAB Standard (https://sketchfab.com/licenses)",
      "source": "https://sketchfab.com/3d-models/a-somehow-strange-seahorse-033df1aad8ae41488a404e07bf3a8aec",
      "title": "A Somehow Strange Seahorse"
    },
    "generator": "Sketchfab-16.16.0",
    "version": "2.0"
  },
  "bufferViews": [
    {
      "buffer": 0,
      "byteLength": 275208,
      "name": "floatBufferViews",
      "target": 34963
    },
    {
      "buffer": 0,
      "byteLength": 189520,
      "byteOffset": 275208,
      "byteStride": 8,
      "name": "floatBufferViews",
      "target": 34962
    },
    {
      "buffer": 0,
      "byteLength": 568560,
      "byteOffset": 464728,
      "byteStride": 12,
      "name": "floatBufferViews",
      "target": 34962
    },
    {
      "buffer": 0,
      "byteLength": 379040,
      "byteOffset": 1033288,
      "byteStride": 16,
      "name": "floatBufferViews",
      "target": 34962
    }
  ],
  "buffers": [
    {
      "byteLength": 1412328,
      "uri": "scene.bin"
    }
  ],
  "images": [
    {
      "uri": "textures/Scene_-_Root_baseColor.png"
    },
    {
      "uri": "textures/Scene_-_Root_metallicRoughness.png"
    },
    {
      "uri": "textures/Scene_-_Root_normal.png"
    }
  ],
  "materials": [
    {
      "doubleSided": true,
      "name": "Scene_-_Root",
      "normalTexture": {
        "index": 2
      },
      "pbrMetallicRoughness": {
        "baseColorTexture": {
          "index": 0
        },
        "metallicRoughnessTexture": {
          "index": 1
        }
      }
    }
  ],
  "meshes": [
    {
      "name": "Cone.001__0",
      "primitives": [
        {
          "attributes": {
            "NORMAL": 1,
            "POSITION": 0,
            "TANGENT": 2,
            "TEXCOORD_0": 3
          },
          "indices": 4,
          "material": 0,
          "mode": 4
        }
      ]
    },
    {
      "name": "Plane.001__0",
      "primitives": [
        {
          "attributes": {
            "NORMAL": 6,
            "POSITION": 5,
            "TANGENT": 7,
            "TEXCOORD_0": 8
          },
          "indices": 9,
          "material": 0,
          "mode": 4
        }
      ]
    },
    {
      "name": "Cube.001__0",
      "primitives": [
        {
          "attributes": {
            "NORMAL": 11,
            "POSITION": 10,
            "TANGENT": 12,
            "TEXCOORD_0": 13
          },
          "indices": 14,
          "material": 0,
          "mode": 4
        }
      ]
    }
  ],
  "nodes": [
    {
      "children": [
        1
      ],
      "matrix": [
        0.053684886544942856,
        0.0,
        0.0,
        0.0,
        0.0,
        1.1920439423316965e-17,
        -0.053684886544942856,
        0.0,
        0.0,
        0.053684886544942856,
        1.1920439423316965e-17,
        0.0,
        0.0,
        0.0,
        0.0,
        1.0
      ],
      "name": "Sketchfab_model"
    },
    {
      "children": [
        2
      ],
      "matrix": [
        0.009999999776482582,
        0.0,
        0.0,
        0.0,
        0.0,
        0.0,
        0.009999999776482582,
        0.0,
        0.0,
        -0.009999999776482582,
        0.0,
        0.0,
        0.0,
        0.0,
        0.0,
        1.0
      ],
      "name": "2a9bdd33a6ac4395a06078df306fedbd.fbx"
    },
    {
      "children": [
        3,
        5,
        7
      ],
      "name": "RootNode"
    },
    {
      "children": [
        4
      ],
      "matrix": [
        100.0,
        0.0,
        0.0,
        0.0,
        0.0,
        -1.629206793918314e-05,
        -99.99999999999868,
        0.0,
        0.0,
        99.99999999999868,
        -1.629206793918314e-05,
        0.0,
        0.0,
        0.0,
        0.0,
        1.0
      ],
      "name": "Cone.001"
    },
    {
      "mesh": 0,
      "name": "Cone.001__0"
    },
    {
      "children": [
        6
      ],
      "matrix": [
        87.6848218553601,
        -48.07673050649063,
        -6.124292895037797e-06,
        0.0,
        -1.3202768914255536e-05,
        -1.1341310957035944e-05,
        -99.9999999999985,
        0.0,
        48.0767305064892,
        87.68482185535957,
        -1.629206793918314e-05,
        0.0,
        -412.6542053222656,
        189.90057373046875,
        -2.5514822482364252e-05,
        1.0
      ],
      "name": "Plane.001"
    },
    {
      "mesh": 1,
      "name": "Plane.001__0"
    },
    {
      "children": [
        8
      ],
      "matrix": [
        87.6848218553601,
        -48.07673050649063,
        -6.124292895037797e-06,
        0.0,
        -1.3202768914255536e-05,
        -1.1341310957035944e-05,
        -99.9999999999985,
        0.0,
        48.0767305064892,
        87.68482185535957,
        -1.629206793918314e-05,
        0.0,
        -412.6542053222656,
        189.90057373046875,
        -2.5514822482364252e-05,
        1.0
      ],
      "name": "Cube.001"
    },
    {
      "mesh": 2,
      "name": "Cube.001__0"
    }
  ],
  "samplers": [
    {
      "magFilter": 9729,
      "minFilter": 9987,
      "wrapS": 10497,
      "wrapT": 10497
    }
  ],
  "scene": 0,
  "scenes": [
    {
      "name": "Sketchfab_Scene",
      "nodes": [
        0
      ]
    }
  ],
  "textures": [
    {
      "sampler": 0,
      "source": 0
    },
    {
      "sampler": 0,
      "source": 1
    },
    {
      "sampler": 0,
      "source": 2
    }
  ]
}
