{
  "accessors": [
    {
      "bufferView": 2,
      "componentType": 5126,
      "count": 16168,
      "max": [
        27.197439193725586,
        168.4462890625,
        66.12747192382813
      ],
      "min": [
        -60.35082244873047,
        -12.536673545837402,
        -36.01998519897461
      ],
      "type": "VEC3"
    },
    {
      "bufferView": 2,
      "byteOffset": 194016,
      "componentType": 5126,
      "count": 16168,
      "max": [
        0.9993279576301575,
        0.999703049659729,
        0.9999437928199768
      ],
      "min": [
        -0.9998759031295776,
        -0.9998335242271423,
        -0.9999989867210388
      ],
      "type": "VEC3"
    },
    {
      "bufferView": 3,
      "componentType": 5126,
      "count": 16168,
      "max": [
        0.9999843835830688,
        0.9996259808540344,
        0.999996542930603,
        1.0
      ],
      "min": [
        -0.999909520149231,
        -0.9998049139976501,
        -0.9999863505363464,
        -1.0
      ],
      "type": "VEC4"
    },
    {
      "bufferView": 1,
      "componentType": 5126,
      "count": 16168,
      "max": [
        0.9964736700057983,
        1.0
      ],
      "min": [
        -3.725290298461914e-09,
        0.0
      ],
      "type": "VEC2"
    },
    {
      "bufferView": 0,
      "componentType": 5125,
      "count": 60396,
      "type": "SCALAR"
    },
    {
      "bufferView": 2,
      "byteOffset": 388032,
      "componentType": 5126,
      "count": 1142,
      "max": [
        66.93711853027344,
        138.91574096679688,
        78.36154174804688
      ],
      "min": [
        -86.93899536132813,
        -1.3750457763671875,
        -54.73860168457031
      ],
      "type": "VEC3"
    },
    {
      "bufferView": 2,
      "byteOffset": 401736,
      "componentType": 5126,
      "count": 1142,
      "max": [
        0.9893292784690857,
        0.9766784310340881,
        0.9995251297950745
      ],
      "min": [
        -0.9885329604148865,
        -0.9882354140281677,
        -0.991722583770752
      ],
      "type": "VEC3"
    },
    {
      "bufferView": 3,
      "byteOffset": 258688,
      "componentType": 5126,
      "count": 1142,
      "max": [
        0.9995443820953369,
        0.7038737535476685,
        0.9987726211547852,
        1.0
      ],
      "min": [
        -0.9923402070999146,
        -0.41001272201538086,
        -0.9999648332595825,
        -1.0
      ],
      "type": "VEC4"
    },
    {
      "bufferView": 1,
      "byteOffset": 129344,
      "componentType": 5126,
      "count": 1142,
      "max": [
        1.0,
        1.0
      ],
      "min": [
        0.48956161737442017,
        0.0
      ],
      "type": "VEC2"
    },
    {
      "bufferView": 0,
      "byteOffset": 241584,
      "componentType": 5125,
      "count": 3312,
      "type": "SCALAR"
    }
  ],
  "asset": {
    "extras": {
      "author": "2iemniak (https://sketchfab.com/2iemniak)",
      "license": "CC-BY-4.0 (http://creativecommons.org/licenses/by/4.0/)",
      "source": "https://sketchfab.com/3d-models/sorcerer-posed-e555c518d7704c3ba3a929162fe7aec0",
      "title": "Sorcerer Posed"
    },
    "generator": "Sketchfab-15.83.0",
    "version": "2.0"
  },
  "bufferViews": [
    {
      "buffer": 0,
      "byteLength": 254832,
      "name": "floatBufferViews",
      "target": 34963
    },
    {
      "buffer": 0,
      "byteLength": 138480,
      "byteOffset": 254832,
      "byteStride": 8,
      "name": "floatBufferViews",
      "target": 34962
    },
    {
      "buffer": 0,
      "byteLength": 415440,
      "byteOffset": 393312,
      "byteStride": 12,
      "name": "floatBufferViews",
      "target": 34962
    },
    {
      "buffer": 0,
      "byteLength": 276960,
      "byteOffset": 808752,
      "byteStride": 16,
      "name": "floatBufferViews",
      "target": 34962
    }
  ],
  "buffers": [
    {
      "byteLength": 1085712,
      "uri": "scene.bin"
    }
  ],
  "extensionsUsed": [
    "KHR_materials_emissive_strength"
  ],
  "images": [
    {
      "uri": "textures/body_baseColor.png"
    },
    {
      "uri": "textures/body_metallicRoughness.png"
    },
    {
      "uri": "textures/body_emissive.png"
    },
    {
      "uri": "textures/body_normal.png"
    }
  ],
  "materials": [
    {
      "doubleSided": true,
      "emissiveFactor": [
        1.0,
        1.0,
        1.0
      ],
      "emissiveTexture": {
        "index": 2
      },
      "extensions": {
        "KHR_materials_emissive_strength": {
          "emissiveStrength": 8.3098323171
        }
      },
      "name": "body",
      "normalTexture": {
        "index": 3
      },
      "pbrMetallicRoughness": {
        "baseColorTexture": {
          "index": 0
        },
        "metallicRoughnessTexture": {
          "index": 1
        }
      }
    },
    {
      "doubleSided": true,
      "emissiveFactor": [
        1.0,
        1.0,
        1.0
      ],
      "emissiveTexture": {
        "index": 2
      },
      "name": "cloth",
      "normalTexture": {
        "index": 3
      },
      "pbrMetallicRoughness": {
        "baseColorTexture": {
          "index": 0
        },
        "metallicRoughnessTexture": {
          "index": 1
        }
      }
    }
  ],
  "meshes": [
    {
      "name": "sorcerer_body.001_body_0",
      "primitives": [
        {
          "attributes": {
            "NORMAL": 1,
            "POSITION": 0,
            "TANGENT": 2,
            "TEXCOORD_0": 3
          },
          "indices": 4,
          "material": 0,
          "mode": 4
        }
      ]
    },
    {
      "name": "sorcerer_cloth.001_cloth_0",
      "primitives": [
        {
          "attributes": {
            "NORMAL": 6,
            "POSITION": 5,
            "TANGENT": 7,
            "TEXCOORD_0": 8
          },
          "indices": 9,
          "material": 1,
          "mode": 4
        }
      ]
    }
  ],
  "nodes": [
    {
      "children": [
        1
      ],
      "matrix": [
        0.0092861857265234,
        0.0,
        0.0,
        0.0,
        0.0,
        2.061947440906353e-18,
        -0.0092861857265234,
        0.0,
        0.0,
        0.0092861857265234,
        2.061947440906353e-18,
        0.0,
        0.0,
        0.0,
        0.0,
        1.0
      ],
      "name": "Sketchfab_model"
    },
    {
      "children": [
        2
      ],
      "matrix": [
        1.0,
        0.0,
        0.0,
        0.0,
        0.0,
        0.0,
        1.0,
        0.0,
        0.0,
        -1.0,
        0.0,
        0.0,
        0.0,
        0.0,
        0.0,
        1.0
      ],
      "name": "f15ccfcfb43b4ce8af88afad6ec085da.fbx"
    },
    {
      "children": [
        3,
        5
      ],
      "name": "RootNode"
    },
    {
      "children": [
        4
      ],
      "matrix": [
        1.0,
        0.0,
        0.0,
        0.0,
        0.0,
        0.9999999999999867,
        -1.6292067073209113e-07,
        0.0,
        0.0,
        1.6292067073209113e-07,
        0.9999999999999867,
        0.0,
        0.0,
        0.0,
        0.0,
        1.0
      ],
      "name": "sorcerer_body.001"
    },
    {
      "mesh": 0,
      "name": "sorcerer_body.001_body_0"
    },
    {
      "children": [
        6
      ],
      "matrix": [
        1.0,
        0.0,
        0.0,
        0.0,
        0.0,
        0.9999999999999867,
        -1.6292067073209113e-07,
        0.0,
        0.0,
        1.6292067073209113e-07,
        0.9999999999999867,
        0.0,
        0.0,
        0.0,
        0.0,
        1.0
      ],
      "name": "sorcerer_cloth.001"
    },
    {
      "mesh": 1,
      "name": "sorcerer_cloth.001_cloth_0"
    }
  ],
  "samplers": [
    {
      "magFilter": 9729,
      "minFilter": 9987,
      "wrapS": 10497,
      "wrapT": 10497
    }
  ],
  "scene": 0,
  "scenes": [
    {
      "name": "Sketchfab_Scene",
      "nodes": [
        0
      ]
    }
  ],
  "textures": [
    {
      "sampler": 0,
      "source": 0
    },
    {
      "sampler": 0,
      "source": 1
    },
    {
      "sampler": 0,
      "source": 2
    },
    {
      "sampler": 0,
      "source": 3
    }
  ]
}
