{
  "accessors": [
    {
      "bufferView": 2,
      "componentType": 5126,
      "count": 65532,
      "max": [
        0.49861401319503784,
        0.9988909959793091,
        0.32690200209617615
      ],
      "min": [
        -0.32712700963020325,
        -0.47178399562835693,
        -0.3251749873161316
      ],
      "type": "VEC3"
    },
    {
      "bufferView": 2,
      "byteOffset": 786384,
      "componentType": 5126,
      "count": 65532,
      "max": [
        0.9999982118606567,
        0.999915599822998,
        0.9999911785125732
      ],
      "min": [
        -0.9999979138374329,
        -0.9999974370002747,
        -0.9999884963035583
      ],
      "type": "VEC3"
    },
    {
      "bufferView": 1,
      "componentType": 5126,
      "count": 65532,
      "max": [
        0.998046875,
        0.998046875
      ],
      "min": [
        0.0020122528076171875,
        0.0020847320556640625
      ],
      "type": "VEC2"
    },
    {
      "bufferView": 0,
      "componentType": 5125,
      "count": 308739,
      "type": "SCALAR"
    },
    {
      "bufferView": 2,
      "byteOffset": 1572768,
      "componentType": 5126,
      "count": 65532,
      "max": [
        0.495373010635376,
        0.5229529738426208,
        0.32690200209617615
      ],
      "min": [
        -0.5616480112075806,
        -0.9425439834594727,
        -0.2425439953804016
      ],
      "type": "VEC3"
    },
    {
      "bufferView": 2,
      "byteOffset": 2359152,
      "componentType": 5126,
      "count": 65532,
      "max": [
        0.9999861717224121,
        0.9999735355377197,
        0.9999843835830688
      ],
      "min": [
        -0.9999953508377075,
        -1.0,
        -0.9999994039535522
      ],
      "type": "VEC3"
    },
    {
      "bufferView": 1,
      "byteOffset": 524256,
      "componentType": 5126,
      "count": 65532,
      "max": [
        0.998046875,
        0.998046875
      ],
      "min": [
        0.0020122528076171875,
        0.002086639404296875
      ],
      "type": "VEC2"
    },
    {
      "bufferView": 0,
      "byteOffset": 1234956,
      "componentType": 5125,
      "count": 280641,
      "type": "SCALAR"
    },
    {
      "bufferView": 2,
      "byteOffset": 3145536,
      "componentType": 5126,
      "count": 65532,
      "max": [
        0.4865260124206543,
        0.6265400052070618,
        0.2515769898891449
      ],
      "min": [
        -0.4267539978027344,
        -0.9831539988517761,
        -0.32580700516700745
      ],
      "type": "VEC3"
    },
    {
      "bufferView": 2,
      "byteOffset": 3931920,
      "componentType": 5126,
      "count": 65532,
      "max": [
        0.9999929666519165,
        0.9991260170936584,
        0.9999982118606567
      ],
      "min": [
        -0.9999979138374329,
        -0.9996479153633118,
        -1.0
      ],
      "type": "VEC3"
    },
    {
      "bufferView": 1,
      "byteOffset": 1048512,
      "componentType": 5126,
      "count": 65532,
      "max": [
        0.998046875,
        0.998046875
      ],
      "min": [
        0.0020122528076171875,
        0.002086639404296875
      ],
      "type": "VEC2"
    },
    {
      "bufferView": 0,
      "byteOffset": 2357520,
      "componentType": 5125,
      "count": 288372,
      "type": "SCALAR"
    },
    {
      "bufferView": 2,
      "byteOffset": 4718304,
      "componentType": 5126,
      "count": 65532,
      "max": [
        0.42290401458740234,
        0.6048250198364258,
        0.23927800357341766
      ],
      "min": [
        -0.3775010108947754,
        -1.000120997428894,
        -0.3138760030269623
      ],
      "type": "VEC3"
    },
    {
      "bufferView": 2,
      "byteOffset": 5504688,
      "componentType": 5126,
      "count": 65532,
      "max": [
        0.9999867677688599,
        0.9999510049819946,
        0.9999998807907104
      ],
      "min": [
        -0.9999854564666748,
        -0.9999997615814209,
        -0.999996542930603
      ],
      "type": "VEC3"
    },
    {
      "bufferView": 1,
      "byteOffset": 1572768,
      "componentType": 5126,
      "count": 65532,
      "max": [
        0.998046875,
        0.998046875
      ],
      "min": [
        0.0020122528076171875,
        0.002086639404296875
      ],
      "type": "VEC2"
    },
    {
      "bufferView": 0,
      "byteOffset": 3511008,
      "componentType": 5125,
      "count": 261711,
      "type": "SCALAR"
    },
    {
      "bufferView": 2,
      "byteOffset": 6291072,
      "componentType": 5126,
      "count": 22853,
      "max": [
        0.46588799357414246,
        0.977607011795044,
        0.2404720038175583
      ],
      "min": [
        -0.4315919876098633,
        -0.9992989897727966,
        -0.28143298625946045
      ],
      "type": "VEC3"
    },
    {
      "bufferView": 2,
      "byteOffset": 6565308,
      "componentType": 5126,
      "count": 22853,
      "max": [
        0.9999450445175171,
        0.9995556473731995,
        0.9998869895935059
      ],
      "min": [
        -1.0,
        -0.9999425411224365,
        -1.0
      ],
      "type": "VEC3"
    },
    {
      "bufferView": 1,
      "byteOffset": 2097024,
      "componentType": 5126,
      "count": 22853,
      "max": [
        0.998046875,
        0.998046875
      ],
      "min": [
        0.0020122528076171875,
        0.0020771026611328125
      ],
      "type": "VEC2"
    },
    {
      "bufferView": 0,
      "byteOffset": 4557852,
      "componentType": 5125,
      "count": 70599,
      "type": "SCALAR"
    }
  ],
  "asset": {
    "extras": {
      "author": "illustros (https://sketchfab.com/illustros)",
      "license": "SKETCHFAB Standard (https://sketchfab.com/licenses)",
      "source": "https://sketchfab.com/3d-models/medieval-knight-06e07c9bcc204650b6cbe52886054dc2",
      "title": "Medieval Knight"
    },
    "generator": "Sketchfab-16.59.0",
    "version": "2.0"
  },
  "bufferViews": [
    {
      "buffer": 0,
      "byteLength": 4840248,
      "name": "floatBufferViews",
      "target": 34963
    },
    {
      "buffer": 0,
      "byteLength": 2279848,
      "byteOffset": 4840248,
      "byteStride": 8,
      "name": "floatBufferViews",
      "target": 34962
    },
    {
      "buffer": 0,
      "byteLength": 6839544,
      "byteOffset": 7120096,
      "byteStride": 12,
      "name": "floatBufferViews",
      "target": 34962
    }
  ],
  "buffers": [
    {
      "byteLength": 13959640,
      "uri": "scene.bin"
    }
  ],
  "extensionsUsed": [
    "KHR_materials_unlit"
  ],
  "images": [
    {
      "uri": "textures/material_0_baseColor.jpeg"
    }
  ],
  "materials": [
    {
      "doubleSided": true,
      "extensions": {
        "KHR_materials_unlit": {}
      },
      "name": "material_0",
      "pbrMetallicRoughness": {
        "baseColorTexture": {
          "index": 0
        },
        "metallicFactor": 0.0
      }
    }
  ],
  "meshes": [
    {
      "name": "Object_0",
      "primitives": [
        {
          "attributes": {
            "NORMAL": 1,
            "POSITION": 0,
            "TEXCOORD_0": 2
          },
          "indices": 3,
          "material": 0,
          "mode": 4
        }
      ]
    },
    {
      "name": "Object_1",
      "primitives": [
        {
          "attributes": {
            "NORMAL": 5,
            "POSITION": 4,
            "TEXCOORD_0": 6
          },
          "indices": 7,
          "material": 0,
          "mode": 4
        }
      ]
    },
    {
      "name": "Object_2",
      "primitives": [
        {
          "attributes": {
            "NORMAL": 9,
            "POSITION": 8,
            "TEXCOORD_0": 10
          },
          "indices": 11,
          "material": 0,
          "mode": 4
        }
      ]
    },
    {
      "name": "Object_3",
      "primitives": [
        {
          "attributes": {
            "NORMAL": 13,
            "POSITION": 12,
            "TEXCOORD_0": 14
          },
          "indices": 15,
          "material": 0,
          "mode": 4
        }
      ]
    },
    {
      "name": "Object_4",
      "primitives": [
        {
          "attributes": {
            "NORMAL": 17,
            "POSITION": 16,
            "TEXCOORD_0": 18
          },
          "indices": 19,
          "material": 0,
          "mode": 4
        }
      ]
    }
  ],
  "nodes": [
    {
      "children": [
        1
      ],
      "matrix": [
        1.0,
        0.0,
        0.0,
        0.0,
        0.0,
        2.220446049250313e-16,
        -1.0,
        0.0,
        0.0,
        1.0,
        2.220446049250313e-16,
        0.0,
        0.0,
        0.0,
        0.0,
        1.0
      ],
      "name": "Sketchfab_model"
    },
    {
      "children": [
        2
      ],
      "name": "root"
    },
    {
      "children": [
        3
      ],
      "matrix": [
        1.0,
        0.0,
        0.0,
        0.0,
        0.0,
        2.220446049250313e-16,
        1.0,
        0.0,
        0.0,
        -1.0,
        2.220446049250313e-16,
        0.0,
        0.0,
        0.0,
        0.0,
        1.0
      ],
      "name": "GLTF_SceneRootNode"
    },
    {
      "children": [
        4,
        5,
        6,
        7,
        8
      ],
      "name": "_0"
    },
    {
      "mesh": 0,
      "name": "Object_4"
    },
    {
      "mesh": 1,
      "name": "Object_5"
    },
    {
      "mesh": 2,
      "name": "Object_6"
    },
    {
      "mesh": 3,
      "name": "Object_7"
    },
    {
      "mesh": 4,
      "name": "Object_8"
    }
  ],
  "samplers": [
    {
      "magFilter": 9729,
      "minFilter": 9987,
      "wrapS": 10497,
      "wrapT": 10497
    }
  ],
  "scene": 0,
  "scenes": [
    {
      "name": "Sketchfab_Scene",
      "nodes": [
        0
      ]
    }
  ],
  "textures": [
    {
      "sampler": 0,
      "source": 0
    }
  ]
}
