{
  "accessors": [
    {
      "bufferView": 2,
      "componentType": 5126,
      "count": 65532,
      "max": [
        0.2830820083618164,
        0.47129300236701965,
        0.318571001291275
      ],
      "min": [
        -0.2621699869632721,
        -0.13472899794578552,
        -0.30689799785614014
      ],
      "type": "VEC3"
    },
    {
      "bufferView": 2,
      "byteOffset": 786384,
      "componentType": 5126,
      "count": 65532,
      "max": [
        0.999985933303833,
        0.9999449253082275,
        0.9999452829360962
      ],
      "min": [
        -0.9999954700469971,
        -0.9999927282333374,
        -0.9999980926513672
      ],
      "type": "VEC3"
    },
    {
      "bufferView": 1,
      "componentType": 5126,
      "count": 65532,
      "max": [
        0.9946889877319336,
        0.9968850016593933
      ],
      "min": [
        8.399999933317304e-05,
        0.00010199999815085903
      ],
      "type": "VEC2"
    },
    {
      "bufferView": 0,
      "componentType": 5125,
      "count": 357528,
      "type": "SCALAR"
    },
    {
      "bufferView": 2,
      "byteOffset": 1572768,
      "componentType": 5126,
      "count": 65532,
      "max": [
        0.28290900588035583,
        0.09972699731588364,
        0.31816598773002625
      ],
      "min": [
        -0.2597390115261078,
        -0.47689399123191833,
        -0.30984899401664734
      ],
      "type": "VEC3"
    },
    {
      "bufferView": 2,
      "byteOffset": 2359152,
      "componentType": 5126,
      "count": 65532,
      "max": [
        0.9999889135360718,
        0.9778261184692383,
        0.9999862909317017
      ],
      "min": [
        -0.9999972581863403,
        -0.9991558194160461,
        -0.9999864101409912
      ],
      "type": "VEC3"
    },
    {
      "bufferView": 1,
      "byteOffset": 524256,
      "componentType": 5126,
      "count": 65532,
      "max": [
        0.9925029873847961,
        0.9995700120925903
      ],
      "min": [
        0.0010550000006332994,
        0.0003459999861661345
      ],
      "type": "VEC2"
    },
    {
      "bufferView": 0,
      "byteOffset": 1430112,
      "componentType": 5125,
      "count": 361458,
      "type": "SCALAR"
    },
    {
      "bufferView": 2,
      "byteOffset": 3145536,
      "componentType": 5126,
      "count": 52809,
      "max": [
        0.24824100732803345,
        0.31248000264167786,
        0.30496999621391296
      ],
      "min": [
        -0.28358399868011475,
        -0.006302000023424625,
        -0.3244340121746063
      ],
      "type": "VEC3"
    },
    {
      "bufferView": 2,
      "byteOffset": 3779244,
      "componentType": 5126,
      "count": 52809,
      "max": [
        0.999987006187439,
        0.9999115467071533,
        0.9999544620513916
      ],
      "min": [
        -0.9999996423721313,
        -0.9999192953109741,
        -0.9999938011169434
      ],
      "type": "VEC3"
    },
    {
      "bufferView": 1,
      "byteOffset": 1048512,
      "componentType": 5126,
      "count": 52809,
      "max": [
        0.9869170188903809,
        0.9978610277175903
      ],
      "min": [
        8.399999933317304e-05,
        0.00010199999815085903
      ],
      "type": "VEC2"
    },
    {
      "bufferView": 0,
      "byteOffset": 2875944,
      "componentType": 5125,
      "count": 287046,
      "type": "SCALAR"
    }
  ],
  "asset": {
    "extras": {
      "author": "r.e.h.c (https://sketchfab.com/by.r.e.h.c)",
      "license": "SKETCHFAB Standard (https://sketchfab.com/licenses)",
      "source": "https://sketchfab.com/3d-models/terrible-cyan-fish-62c32436ab8e4847b39a4cf04294dcc4",
      "title": "Terrible Cyan fish"
    },
    "generator": "Sketchfab-16.62.0",
    "version": "2.0"
  },
  "bufferViews": [
    {
      "buffer": 0,
      "byteLength": 4024128,
      "name": "floatBufferViews",
      "target": 34963
    },
    {
      "buffer": 0,
      "byteLength": 1470984,
      "byteOffset": 4024128,
      "byteStride": 8,
      "name": "floatBufferViews",
      "target": 34962
    },
    {
      "buffer": 0,
      "byteLength": 4412952,
      "byteOffset": 5495112,
      "byteStride": 12,
      "name": "floatBufferViews",
      "target": 34962
    }
  ],
  "buffers": [
    {
      "byteLength": 9908064,
      "uri": "scene.bin"
    }
  ],
  "images": [
    {
      "uri": "textures/tripo_mat_62d4304d-795c-4b85-bb2a-7365ad255ee2_baseColor.jpeg"
    },
    {
      "uri": "textures/tripo_mat_62d4304d-795c-4b85-bb2a-7365ad255ee2_metallicRoughness.png"
    }
  ],
  "materials": [
    {
      "doubleSided": true,
      "name": "tripo_mat_62d4304d-795c-4b85-bb2a-7365ad255ee2",
      "pbrMetallicRoughness": {
        "baseColorTexture": {
          "index": 0
        },
        "metallicRoughnessTexture": {
          "index": 1
        },
        "roughnessFactor": 0.6
      }
    }
  ],
  "meshes": [
    {
      "name": "Object_0",
      "primitives": [
        {
          "attributes": {
            "NORMAL": 1,
            "POSITION": 0,
            "TEXCOORD_0": 2
          },
          "indices": 3,
          "material": 0,
          "mode": 4
        }
      ]
    },
    {
      "name": "Object_1",
      "primitives": [
        {
          "attributes": {
            "NORMAL": 5,
            "POSITION": 4,
            "TEXCOORD_0": 6
          },
          "indices": 7,
          "material": 0,
          "mode": 4
        }
      ]
    },
    {
      "name": "Object_2",
      "primitives": [
        {
          "attributes": {
            "NORMAL": 9,
            "POSITION": 8,
            "TEXCOORD_0": 10
          },
          "indices": 11,
          "material": 0,
          "mode": 4
        }
      ]
    }
  ],
  "nodes": [
    {
      "children": [
        1
      ],
      "matrix": [
        1.0,
        0.0,
        0.0,
        0.0,
        0.0,
        2.220446049250313e-16,
        -1.0,
        0.0,
        0.0,
        1.0,
        2.220446049250313e-16,
        0.0,
        0.0,
        0.0,
        0.0,
        1.0
      ],
      "name": "Sketchfab_model"
    },
    {
      "children": [
        2,
        3,
        4
      ],
      "name": "tripo_convert_62d4304d-795c-4b85-bb2a-7365ad255ee2.obj.cleaner.materialmerger.gles"
    },
    {
      "mesh": 0,
      "name": "Object_2"
    },
    {
      "mesh": 1,
      "name": "Object_3"
    },
    {
      "mesh": 2,
      "name": "Object_4"
    }
  ],
  "samplers": [
    {
      "magFilter": 9729,
      "minFilter": 9987,
      "wrapS": 10497,
      "wrapT": 10497
    }
  ],
  "scene": 0,
  "scenes": [
    {
      "name": "Sketchfab_Scene",
      "nodes": [
        0
      ]
    }
  ],
  "textures": [
    {
      "sampler": 0,
      "source": 0
    },
    {
      "sampler": 0,
      "source": 1
    }
  ]
}
